{
  "accessors": [
    {
      "bufferView": 2,
      "componentType": 5126,
      "count": 24,
      "max": [
        9.285966873168945,
        9.285966873168945,
        0.0
      ],
      "min": [
        -9.285966873168945,
        -9.285966873168945,
        -0.1138639971613884
      ],
      "type": "VEC3"
    },
    {
      "bufferView": 2,
      "byteOffset": 288,
      "componentType": 5126,
      "count": 24,
      "max": [
        1.0,
        1.0,
        1.0
      ],
      "min": [
        -1.0,
        -1.0,
        -1.0
      ],
      "type": "VEC3"
    },
    {
      "bufferView": 1,
      "componentType": 5126,
      "count": 24,
      "max": [
        2.944344997406006,
        2.944344997406006
      ],
      "min": [
        -1.9443449974060059,
        -1.9443449974060059
      ],
      "type": "VEC2"
    },
    {
      "bufferView": 0,
      "componentType": 5125,
      "count": 36,
      "type": "SCALAR"
    },
    {
      "bufferView": 2,
      "byteOffset": 576,
      "componentType": 5126,
      "count": 432,
      "max": [
        1.660573959350586,
        1.4436359405517578,
        0.49600398540496826
      ],
      "min": [
        -1.6584370136260986,
        -1.4339040517807007,
        0.0001990000018849969
      ],
      "type": "VEC3"
    },
    {
      "bufferView": 2,
      "byteOffset": 5760,
      "componentType": 5126,
      "count": 432,
      "max": [
        1.0,
        1.0,
        1.0
      ],
      "min": [
        -1.0,
        -1.0,
        -1.0
      ],
      "type": "VEC3"
    },
    {
      "bufferView": 3,
      "componentType": 5126,
      "count": 432,
      "max": [
        1.0,
        1.0,
        0.49877336621284485,
        1.0
      ],
      "min": [
        -1.0,
        -1.0,
        -1.0,
        -1.0
      ],
      "type": "VEC4"
    },
    {
      "bufferView": 1,
      "byteOffset": 192,
      "componentType": 5126,
      "count": 432,
      "max": [
        0.9851930141448975,
        0.9982060194015503
      ],
      "min": [
        0.0,
        0.0
      ],
      "type": "VEC2"
    },
    {
      "bufferView": 0,
      "byteOffset": 144,
      "componentType": 5125,
      "count": 1344,
      "type": "SCALAR"
    },
    {
      "bufferView": 2,
      "byteOffset": 10944,
      "componentType": 5126,
      "count": 65533,
      "max": [
        1.6299699544906616,
        1.4169650077819824,
        2.9173290729522705
      ],
      "min": [
        -1.6341969966888428,
        -1.3923619985580444,
        0.4644260108470917
      ],
      "type": "VEC3"
    },
    {
      "bufferView": 2,
      "byteOffset": 797340,
      "componentType": 5126,
      "count": 65533,
      "max": [
        1.0,
        1.0,
        1.0
      ],
      "min": [
        -1.0,
        -1.0,
        -1.0
      ],
      "type": "VEC3"
    },
    {
      "bufferView": 3,
      "byteOffset": 6912,
      "componentType": 5126,
      "count": 65533,
      "max": [
        1.0,
        1.0,
        1.0,
        1.0
      ],
      "min": [
        -1.0,
        -1.0,
        -1.0,
        -1.0
      ],
      "type": "VEC4"
    },
    {
      "bufferView": 1,
      "byteOffset": 3648,
      "componentType": 5126,
      "count": 65533,
      "max": [
        0.9411349892616272,
        0.8937569856643677
      ],
      "min": [
        0.06769300252199173,
        0.050241999328136444
      ],
      "type": "VEC2"
    },
    {
      "bufferView": 0,
      "byteOffset": 5520,
      "componentType": 5125,
      "count": 112359,
      "type": "SCALAR"
    },
    {
      "bufferView": 2,
      "byteOffset": 1583736,
      "componentType": 5126,
      "count": 57273,
      "max": [
        1.6341969966888428,
        1.4169650077819824,
        2.060602903366089
      ],
      "min": [
        -1.630087971687317,
        -1.3923619985580444,
        0.4644260108470917
      ],
      "type": "VEC3"
    },
    {
      "bufferView": 2,
      "byteOffset": 2271012,
      "componentType": 5126,
      "count": 57273,
      "max": [
        1.0,
        1.0,
        1.0
      ],
      "min": [
        -1.0,
        -1.0,
        -1.0
      ],
      "type": "VEC3"
    },
    {
      "bufferView": 3,
      "byteOffset": 1055440,
      "componentType": 5126,
      "count": 57273,
      "max": [
        1.0,
        1.0,
        1.0,
        1.0
      ],
      "min": [
        -1.0,
        -1.0,
        -1.0,
        -1.0
      ],
      "type": "VEC4"
    },
    {
      "bufferView": 1,
      "byteOffset": 527912,
      "componentType": 5126,
      "count": 57273,
      "max": [
        0.27744001150131226,
        0.8937569856643677
      ],
      "min": [
        0.06769300252199173,
        0.6840100288391113
      ],
      "type": "VEC2"
    },
    {
      "bufferView": 0,
      "byteOffset": 454956,
      "componentType": 5125,
      "count": 98073,
      "type": "SCALAR"
    }
  ],
  "asset": {
    "extras": {
      "author": "VX-Designs (https://sketchfab.com/vxdesigns)",
      "license": "CC-BY-4.0 (http://creativecommons.org/licenses/by/4.0/)",
      "source": "https://sketchfab.com/3d-models/single-sofa-free-ec2c92de034242e884a7a6476763077a",
      "title": "Single Sofa (FREE)"
    },
    "generator": "Sketchfab-12.68.0",
    "version": "2.0"
  },
  "bufferViews": [
    {
      "buffer": 0,
      "byteLength": 847248,
      "name": "floatBufferViews",
      "target": 34963
    },
    {
      "buffer": 0,
      "byteLength": 986096,
      "byteOffset": 847248,
      "byteStride": 8,
      "name": "floatBufferViews",
      "target": 34962
    },
    {
      "buffer": 0,
      "byteLength": 2958288,
      "byteOffset": 1833344,
      "byteStride": 12,
      "name": "floatBufferViews",
      "target": 34962
    },
    {
      "buffer": 0,
      "byteLength": 1971808,
      "byteOffset": 4791632,
      "byteStride": 16,
      "name": "floatBufferViews",
      "target": 34962
    }
  ],
  "buffers": [
    {
      "byteLength": 6763440,
      "uri": "sofa2.bin"
    }
  ],
  "images": [
    {
      "uri": "sofa2/None_baseColor.png"
    },
    {
      "uri": "sofa2/None_Base_Diffuse.png_baseColor.png"
    },
    {
      "uri": "sofa2/None_Base_Diffuse.png_normal.png"
    },
    {
      "uri": "sofa2/None_Texture.jpg_baseColor.jpeg"
    },
    {
      "uri": "sofa2/None_Texture.jpg_normal.png"
    }
  ],
  "materials": [
    {
      "doubleSided": true,
      "name": "None",
      "pbrMetallicRoughness": {
        "baseColorTexture": {
          "index": 0
        },
        "metallicFactor": 0.0
      }
    },
    {
      "doubleSided": true,
      "name": "None_Base_Diffuse.png",
      "normalTexture": {
        "index": 2
      },
      "pbrMetallicRoughness": {
        "baseColorTexture": {
          "index": 1
        },
        "metallicFactor": 0.0,
        "roughnessFactor": 0.6
      }
    },
    {
      "doubleSided": true,
      "name": "None_Texture.jpg",
      "normalTexture": {
        "index": 4
      },
      "pbrMetallicRoughness": {
        "baseColorTexture": {
          "index": 3
        },
        "metallicFactor": 0.0,
        "roughnessFactor": 0.6
      }
    }
  ],
  "meshes": [
    {
      "name": "Object_0",
      "primitives": [
        {
          "attributes": {
            "NORMAL": 1,
            "POSITION": 0,
            "TEXCOORD_0": 2
          },
          "indices": 3,
          "material": 0,
          "mode": 4
        }
      ]
    },
    {
      "name": "Object_1",
      "primitives": [
        {
          "attributes": {
            "NORMAL": 5,
            "POSITION": 4,
            "TANGENT": 6,
            "TEXCOORD_0": 7
          },
          "indices": 8,
          "material": 1,
          "mode": 4
        }
      ]
    },
    {
      "name": "Object_2",
      "primitives": [
        {
          "attributes": {
            "NORMAL": 10,
            "POSITION": 9,
            "TANGENT": 11,
            "TEXCOORD_0": 12
          },
          "indices": 13,
          "material": 2,
          "mode": 4
        }
      ]
    },
    {
      "name": "Object_3",
      "primitives": [
        {
          "attributes": {
            "NORMAL": 15,
            "POSITION": 14,
            "TANGENT": 16,
            "TEXCOORD_0": 17
          },
          "indices": 18,
          "material": 2,
          "mode": 4
        }
      ]
    }
  ],
  "nodes": [
    {
      "children": [
        1
      ],
      "matrix": [
        0.304147869348526,
        0.0,
        0.0,
        0.0,
        0.0,
        6.75343934882835e-17,
        -0.304147869348526,
        0.0,
        0.0,
        0.304147869348526,
        6.75343934882835e-17,
        0.0,
        0.0,
        0.0,
        0.0,
        1.0
      ],
      "name": "Sketchfab_model"
    },
    {
      "children": [
        2,
        3,
        4,
        5
      ],
      "name": "Couch.obj.cleaner.materialmerger.gles"
    },
    {
      "mesh": 0,
      "name": "Object_2"
    },
    {
      "mesh": 1,
      "name": "Object_3"
    },
    {
      "mesh": 2,
      "name": "Object_4"
    },
    {
      "mesh": 3,
      "name": "Object_5"
    }
  ],
  "samplers": [
    {
      "magFilter": 9729,
      "minFilter": 9987,
      "wrapS": 10497,
      "wrapT": 10497
    }
  ],
  "scene": 0,
  "scenes": [
    {
      "name": "Sketchfab_Scene",
      "nodes": [
        0
      ]
    }
  ],
  "textures": [
    {
      "sampler": 0,
      "source": 0
    },
    {
      "sampler": 0,
      "source": 1
    },
    {
      "sampler": 0,
      "source": 2
    },
    {
      "sampler": 0,
      "source": 3
    },
    {
      "sampler": 0,
      "source": 4
    }
  ]
}
